<?xml version="1.0" encoding="utf-8"?>
<!-- Generator: Adobe Illustrator 15.0.2, SVG Export Plug-In . SVG Version: 6.00 Build 0)  -->
<!DOCTYPE svg PUBLIC "-//W3C//DTD SVG 1.1//EN" "http://www.w3.org/Graphics/SVG/1.1/DTD/svg11.dtd">
<svg version="1.1" id="Layer_1" xmlns="http://www.w3.org/2000/svg" xmlns:xlink="http://www.w3.org/1999/xlink" x="0px" y="0px"
	 width="512px" height="625.438px" viewBox="0 0 512 625.438" enable-background="new 0 0 512 625.438" xml:space="preserve">
<path d="M255.861,170.574c31.413,0,56.857-25.444,56.857-56.858c0-10.66-2.984-20.752-8.106-29.282L255.861,0l-48.759,84.434
	c-5.115,8.53-8.1,18.622-8.1,29.282C199.003,145.13,224.447,170.574,255.861,170.574z M386.484,454.434l-30.553-30.553
	l-30.705,30.553c-37.105,37.105-101.917,37.105-139.015,0l-30.561-30.553l-30.705,30.553
	c-18.338,18.629-42.929,28.859-69.227,28.859c-20.606,0-39.798-6.538-55.72-17.49V597.01c0,15.63,12.792,28.429,28.429,28.429
	h454.864c15.631,0,28.43-12.799,28.43-28.429V465.803c-15.922,10.952-34.968,17.49-55.72,17.49
	C429.711,483.293,405.113,473.062,386.484,454.434z M426.436,255.861H284.29v-56.858h-56.857v56.858H85.287
	C38.236,255.861,0,294.098,0,341.148v43.781c0,30.706,25.015,55.72,55.72,55.72c14.93,0,28.859-5.83,39.374-16.352l60.843-60.689
	l60.696,60.551c21.037,21.044,57.704,21.044,78.734,0l60.856-60.551l60.689,60.551c10.521,10.521,24.444,16.352,39.367,16.352
	c30.705,0,55.72-25.014,55.72-55.72v-43.643C511.723,294.098,473.493,255.861,426.436,255.861z"/>
</svg>
